<?xml version="1.0" encoding="utf-8"?>
<!-- Generator: Adobe Illustrator 17.1.0, SVG Export Plug-In . SVG Version: 6.00 Build 0)  -->
<!DOCTYPE svg PUBLIC "-//W3C//DTD SVG 1.1//EN" "http://www.w3.org/Graphics/SVG/1.1/DTD/svg11.dtd">
<svg version="1.1" id="Layer_1" xmlns="http://www.w3.org/2000/svg" xmlns:xlink="http://www.w3.org/1999/xlink" x="0px" y="0px"
	 viewBox="0 0 100 100" enable-background="new 0 0 100 100" xml:space="preserve">
<g>
	<rect fill="none" stroke="#FFFFFF" stroke-width="8" stroke-miterlimit="10" width="100" height="100"/>
	<path fill="#FFFFFF" d="M36.7,23.5c6.6,0,10.9,3.8,12.8,8.7c2.1,5.3,1.5,11.3-3.9,15.1c6.1,2.5,8.2,8.2,8.2,13.2
		c0,8-5.3,16-15.4,16H14.6V23.5H36.7z M22.2,44.5h14.3c8.3,0,8.5-13.8,0.1-13.8H22.2V44.5z M22.2,69.1h16.4c5.2,0,7.7-4.3,7.7-8.5
		c0-4.2-2.5-8.4-7.7-8.4H22.2V69.1z"/>
	<path fill="#FFFFFF" d="M47.9,29.1l14.5,21.5l17.2-26h5.8v51.9h-7.2V41.4L65.1,60.7h-5.2L47.8,43.5"/>
</g>
</svg>
